<?xml version="1.0" encoding="UTF-8"?>
<svg xmlns="http://www.w3.org/2000/svg" width="400" height="400" viewBox="0 0 426 426">
  <ellipse
    cx="213.05"
    cy="212.85"
    rx="177.39"
    ry="177.39"
    fill="none"
    stroke="#33b5e5"
    stroke-width="53.524"
    stroke-miterlimit="0"
  />
  <path
    d="M225.31 270.92h-24.991c.003 7.378 5.257 9.716 12.21 9.743 6.773-.027 12.781.463 12.781-9.743zm-75.91-122.11-15.55-37.72c-4.407-9.273-17.914-3.577-13.749 6.452l14.836 35.724c-18.291 5.269-30.876 21.149-31.001 36.22l.063 76.086c.062 12.24 16.329 33.193 45.306 37.48 34.092 7.638 92.356 7.317 127.48 0 25.01-3.203 44.22-22.417 44.158-37.48v-80.458c.062-11.378-13.288-27.461-29.72-31.973l14.898-37.981c2.728-8.227-9.345-11.737-12.773-4.762l-16.563 38.495c-29.964-8.264-96.007-8.383-127.39-.088zm7.971 43.575c17.956 0 32.388 14.424 32.388 32.37 0 17.947-14.431 32.37-32.388 32.37-17.956 0-32.388-14.424-32.388-32.37 0-17.947 14.431-32.37 32.388-32.37zm111.13 0c17.956 0 32.388 14.424 32.388 32.37 0 17.947-14.431 32.37-32.388 32.37-17.956 0-32.388-14.424-32.388-32.37 0-17.947 14.431-32.37 32.388-32.37z"
    fill="#33b5e5"
    fill-rule="evenodd"
  />
</svg>
