<?xml version="1.0" encoding="UTF-8" standalone="no"?>
<svg xmlns:rdf="http://www.w3.org/1999/02/22-rdf-syntax-ns#" style="enable-background:new" xmlns="http://www.w3.org/2000/svg" xml:space="preserve" height="149" width="800" version="1.1" xmlns:cc="http://creativecommons.org/ns#" viewBox="0 0 800 148.95001" xmlns:dc="http://purl.org/dc/elements/1.1/"><g transform="translate(-0.9 26.7)"><g stroke="#ff1f00" stroke-width="18" stroke-opacity=".6743"><a/><a transform="matrix(-1 0 0 1 145.4 -3.427e-7)"/><a transform="matrix(-1 0 0 1 145.3 -3.427e-7)"/></g><a fill="#4cb5e8" transform="translate(61.04 -3.427e-7)"/><g fill-rule="evenodd" transform="matrix(1.214 0 0 1.214 -.1930 -26.21)" fill="#00b0e4"><path style="enable-background:accumulate;color-rendering:auto;text-decoration-color:#000000;color:#000000;isolation:auto;mix-blend-mode:normal;shape-rendering:auto;solid-color:#000000;block-progression:tb;text-decoration-line:none;text-decoration-style:solid;image-rendering:auto;white-space:normal;text-indent:0;text-transform:none" d="m36.31-0.37-35.41 61.18 35.41 61.39h59.89l-0.01182-2.059-9.41-16.2-40.11 0.3-24.98-43.39 24.98-43.18 40.11 0.02 9.42-16.02v-2.03z"/><path style="enable-background:accumulate;color-rendering:auto;text-decoration-color:#000000;color:#000000;isolation:auto;mix-blend-mode:normal;shape-rendering:auto;solid-color:#000000;block-progression:tb;text-decoration-line:none;text-decoration-style:solid;image-rendering:auto;white-space:normal;text-indent:0;text-transform:none" d="m112.4 9.5-9.452 16.1 20.3 35.22-20.29 35.35 9.448 16.15 2.01 0.003 29.61-51.53-29.61-51.3z"/><path d="m56.89 35.38-14.65 25.43 14.65 25.43h29.89l14.66-25.43-14.66-25.43z"/></g><g fill-rule="evenodd" fill="#00b0e4"><path style="enable-background:accumulate;color-rendering:auto;text-decoration-color:#000000;color:#000000;isolation:auto;mix-blend-mode:normal;shape-rendering:auto;solid-color:#000000;block-progression:tb;text-decoration-line:none;text-decoration-style:solid;image-rendering:auto;white-space:normal;text-indent:0;text-transform:none" d="m200.5 47.87c0.044 36.93 42.65 49.58 63.45 29.83v-3.048l-11.26-11.3c-10.7 10.84-34.32 5.663-34.58-15.47 0.5209-22.8 24.3-25.43 35.51-15.92l10.33-10.98v-4.129c-23.8-19.83-63.4-3.39-63.4 31.02z"/><path style="enable-background:accumulate;color-rendering:auto;text-decoration-color:#000000;color:#000000;isolation:auto;mix-blend-mode:normal;shape-rendering:auto;solid-color:#000000;block-progression:tb;text-decoration-line:none;text-decoration-style:solid;image-rendering:auto;white-space:normal;text-indent:0;text-transform:none" d="m321.2 11.43-16.38 26.11-16.18-26.11-18.07 0.05367v4.452l24.8 39.54v29.29h18.22v-29.24l25.08-39.58v-4.506z"/><path style="enable-background:accumulate;color-rendering:auto;text-decoration-color:#000000;color:#000000;isolation:auto;mix-blend-mode:normal;shape-rendering:auto;solid-color:#000000;block-progression:tb;text-decoration-line:none;text-decoration-style:solid;image-rendering:auto;white-space:normal;text-indent:0;text-transform:none" d="m377.5 11.43-20.2-0.000001-31.62 73.33h18.96l6.079-13.8 32.96-0.3321 6.057 14.13h18.94zm-10.12 20.88 8.897 20.92-17.99 0.1826z"/><path style="enable-background:accumulate;color-rendering:auto;text-decoration-color:#000000;color:#000000;isolation:auto;mix-blend-mode:normal;shape-rendering:auto;solid-color:#000000;block-progression:tb;text-decoration-line:none;text-decoration-style:solid;image-rendering:auto;white-space:normal;text-indent:0;text-transform:none" d="m415.8 11.43v73.33h18.22v-44.2l33.75 44.2 18.72 0.0079-0.006-73.33h-18.22v43.96l-33.69-43.96z"/></g><ellipse rx="30.11" ry="30.69" stroke="#00b0e4" cy="47.92" cx="533.8" stroke-width="18.22" fill="none"/><path style="enable-background:accumulate;color-rendering:auto;text-decoration-color:#000000;color:#000000;isolation:auto;mix-blend-mode:normal;shape-rendering:auto;solid-color:#000000;block-progression:tb;text-decoration-line:none;text-decoration-style:solid;image-rendering:auto;white-space:normal;text-indent:0;text-transform:none" d="m579.6 47.83v0.03795 0.03558c-0.0157 42.77 53.53 50.22 71.21 22.38v-31.52h-27.61l-5.768 9.108 5.768 8.307h9.715v7.256c-15.8 13.74-35.1-0.34-35.1-15.57 0-19.16 23.1-27.32 34.7-15.33l12.66-13.1c-23.97-23.33-65.59-6.383-65.57 28.37z" fill-rule="evenodd" fill="#00b0e4"/><path d="m669.8 47.87h41.63m7.529-28.02-49.16-0.3036v56.67l49.16-0.1518" stroke="#00b0e4" stroke-width="17.61" fill="none"/><path style="enable-background:accumulate;color-rendering:auto;text-decoration-color:#000000;color:#000000;isolation:auto;mix-blend-mode:normal;shape-rendering:auto;solid-color:#000000;block-progression:tb;text-decoration-line:none;text-decoration-style:solid;image-rendering:auto;white-space:normal;text-indent:0;text-transform:none" d="m730.2 11.43v73.33h18.22v-44.2l33.75 44.2 18.72 0.0073-0.006-73.33h-18.22v43.96l-33.69-43.96z" fill-rule="evenodd" fill="#00b0e4"/></g></svg>
