<?xml version="1.0" encoding="UTF-8"?>
<svg xmlns="http://www.w3.org/2000/svg" width="512" height="512" viewBox="0 0 545.28 545.28">
  <title>Android Logo (White, Enlarged, Centered)</title>

  <!-- Background box with rounded corners -->
  <rect width="545.28" height="545.28" rx="64" ry="64" fill="#33b5e5" />

  <!-- Centered, slightly enlarged Android logo -->
  <g transform="translate(272.64, 272.64) scale(1.1) translate(-272.64, -272.64)">
    <path
      d="M288.397 346.778h-31.989c0.004 9.444 6.729 12.437 15.628 12.471 8.669 -0.035 16.36 0.593 16.36 -12.471m-97.164 -156.301 -19.904 -48.282c-5.641 -11.87 -22.93 -4.579 -17.599 8.259l18.99 45.727c-23.412 6.744 -39.521 27.071 -39.681 46.361l0.081 97.39c0.08 15.667 20.901 42.487 57.992 47.974 43.638 9.777 118.216 9.366 163.174 0 32.012 -4.1 56.601 -28.694 56.523 -47.974V236.946c0.08 -14.564 -17.009 -35.15 -38.042 -40.925l19.07 -48.616c3.492 -10.53 -11.962 -15.024 -16.349 -6.095l-21.201 49.274c-38.354 -10.578 -122.889 -10.73 -163.06 -0.113zm10.203 55.776c22.984 0 41.457 18.463 41.457 41.434s-18.472 41.434 -41.457 41.434 -41.457 -18.463 -41.457 -41.434 18.472 -41.434 41.457 -41.434m142.246 0c22.984 0 41.457 18.463 41.457 41.434s-18.472 41.434 -41.457 41.434 -41.457 -18.463 -41.457 -41.434 18.472 -41.434 41.457 -41.434"
      fill="#ffffff"
      fill-rule="evenodd"
    />
  </g>
</svg>
