<?xml version="1.0" encoding="UTF-8"?>
<svg width="512px" height="512px" viewBox="0 0 544 544" role="img" xmlns="http://www.w3.org/2000/svg">
  <title>LineageOS</title>

  <rect width="544" height="544" rx="64" ry="64" fill="#167C80" />

 
  <g transform="translate(272,272) scale(0.9) translate(-256,-256)">
    <path 
      fill="#ffffff"
      d="M461.76 257.216a51.2 51.2 0 0 0 -38.464 17.067l-2.944 -1.152a384 384 0 0 0 -61.163 -18.347 102.571 102.571 0 0 0 -205.12 0H151.253a384 384 0 0 0 -58.987 17.813l-2.944 1.173a51.285 51.285 0 1 0 11.925 22.827 354.133 354.133 0 0 1 54.997 -16.555 102.571 102.571 0 0 0 199.616 0 354.133 354.133 0 0 1 54.997 16.427 51.285 51.285 0 1 0 50.901 -39.253M51.499 334.144a25.643 25.643 0 1 1 25.643 -25.643 25.6 25.6 0 0 1 -25.643 25.643m205.141 0a76.928 76.928 0 1 1 76.928 -76.928 76.928 76.928 0 0 1 -76.928 76.928m205.12 0a25.643 25.643 0 1 1 25.643 -25.643 25.6 25.6 0 0 1 -25.643 25.643m-166.656 -76.928a38.464 38.464 0 1 1 -38.464 -38.464 38.464 38.464 0 0 1 38.464 38.464Z"
    />
  </g>
</svg>
