<?xml version="1.0" encoding="UTF-8" standalone="no"?>
<svg
   version="1.1"
   width="568.00012pt"
   height="231.00011pt"
   id="svg3"
   viewBox="0 0 568.00012 231.00011"
   sodipodi:docname="Flyme_OS_Logo.cdr"
   xmlns:inkscape="http://www.inkscape.org/namespaces/inkscape"
   xmlns:sodipodi="http://sodipodi.sourceforge.net/DTD/sodipodi-0.dtd"
   xmlns="http://www.w3.org/2000/svg"
   xmlns:svg="http://www.w3.org/2000/svg">
  <defs
     id="defs3" />
  <sodipodi:namedview
     id="namedview3"
     pagecolor="#ffffff"
     bordercolor="#000000"
     borderopacity="0.25"
     inkscape:showpageshadow="2"
     inkscape:pageopacity="0.0"
     inkscape:pagecheckerboard="0"
     inkscape:deskcolor="#d1d1d1"
     inkscape:document-units="pt" />
  <path
     d="m 314.7301,90.0001 c 5.6399,0 11.2998,0 16.9498,0 6.6402,15.4199 13.3002,30.82 19.9701,46.23 5.9601,-15.3899 11.8899,-30.8001 17.8101,-46.2101 5.5499,-0.04 11.1098,-0.0199 16.6699,-0.0199 -7.2099,18.8499 -14.4201,37.6901 -21.7899,56.4801 -2.91,7.2397 -5.36,14.6897 -9.1902,21.5198 -5.3198,9.6301 -11.6098,18.8603 -19.65,26.4302 -3.6998,3.5096 -8,6.4499 -12.8699,8.0699 -1.3399,-4.9801 -2.5699,-9.9898 -3.89,-14.9802 4.2701,-2.0897 7.63,-5.5398 10.63,-9.1596 5.4399,-6.6302 10.0899,-13.9 13.86,-21.6102 -9.5001,-22.25 -19.01,-44.5 -28.4999,-66.75 z M 527.01,105.97 c -4.8799,2.8601 -8.11,7.7601 -10.1101,12.9401 11.7802,0.04 23.5502,0.0199 35.3302,0.01 -0.4601,-4.6298 -1.77,-9.5898 -5.5301,-12.66 -5.5299,-4.5599 -13.8501,-3.9399 -19.69,-0.29 z m -15.2499,-7.2499 c 9.36,-9.61 24.48,-13.6599 37.1098,-8.5901 8.2601,3.23 14.8102,10.4502 17.2301,18.9802 2.4999,8.1 1.4301,16.6898 0.0499,24.8899 -16.8299,0.0102 -33.6699,-0.0301 -50.4998,0.0198 1.5299,5.4604 4.83,10.8604 10.2098,13.2103 8.7401,3.7001 19.2901,1.3802 26.2701,-4.8603 3.5901,3.7803 7.1799,7.5603 10.76,11.35 -12.7301,11.7501 -33.5199,13.8404 -48.2,4.5802 -8.56,-5.4601 -13.8101,-15.23 -14.6001,-25.2601 -1.01,-12.3398 2.8502,-25.4098 11.6702,-34.3199 z M 396.4501,97.32 c 11.2199,-11.59 30.86,-12.3698 43.93,-3.49 6.5999,-4.4399 14.6999,-6.6798 22.6499,-5.8399 7.8999,0.58 16.0801,3.3701 21.31,9.5899 4.93,5.51 6.6799,13.17 6.05,20.41 -1.1001,14.36 -2.3199,28.7203 -3.4699,43.0801 -5.2101,0 -10.4102,0 -15.62,-0.01 1.1699,-14.6801 2.41,-29.3704 3.56,-44.0601 0.3498,-4.3801 -0.4402,-9.79 -4.7602,-12.0299 -6.5299,-3.1 -14.62,-2.8701 -20.88,0.8198 1.0602,4.2902 1.51,8.74 1.0902,13.1502 -1.1401,14.04 -2.2802,28.0797 -3.42,42.12 -5.2101,0.01 -10.4102,0.01 -15.62,0 1.1698,-14.6801 2.41,-29.3499 3.56,-44.03 0.43,-4.5802 -0.6202,-10.2801 -5.3002,-12.3401 -5.69,-2.3601 -12.3199,-2.4899 -18.0598,-0.2599 -1.5701,18.8699 -3.0801,37.7501 -4.6202,56.63 -5.2098,0.01 -10.41,0.01 -15.6198,0 1.7399,-21.2403 3.53,-42.4902 5.22,-63.7402 z m -110.77,21.7401 C 287.32,99.02 288.94,78.97 290.5999,58.9302 c 5.2002,0.0099 10.4001,0 15.6002,0.0099 -1.8601,23.04 -3.7902,46.08 -5.6202,69.1299 -0.5199,6.9001 0.7401,14.5403 5.9901,19.5001 -2.4899,4.5198 -4.89,9.0799 -7.38,13.5901 -7.3301,-4.53 -11.6801,-12.6499 -13.3401,-20.9202 -1.4998,-6.9798 -0.7798,-14.1398 -0.1698,-21.1799 z M 214.96,59.0002 c 21.1099,0 42.22,0 63.3299,0 -0.3999,5.07 -0.7999,10.1299 -1.2098,15.1999 -15.9301,0 -31.8501,-0.0099 -47.77,0 -0.6602,8.25 -1.3502,16.49 -1.98,24.7399 13.7199,-0.0198 27.4498,0 41.18,0 -0.4102,5.0202 -0.8101,10.0401 -1.2302,15.06 -13.7398,0 -27.4899,0 -41.2299,0 -1.27,15.6702 -2.53,31.3302 -3.8101,47.0001 -5.1999,0 -10.4099,0 -15.6098,0 2.77,-33.9999 5.54,-68.0001 8.3299,-101.9999 z"
     style="fill:#32a5e6;fill-rule:evenodd"
     id="path1" />
  <path
     d="m 74.02,2.04 c 20.7,-3.18 42.76,0.18 60.7099,11.26 15.8802,9.61 27.8702,24.95 34.5801,42.16 7.99,20.44 9.5099,43.1702 5.7501,64.7101 -4.18,23.8102 -16.82,45.9403 -35.1,61.7403 -10.4502,9.15 -22.4802,16.45 -35.2602,21.8699 -3.5099,1.5896 -6.7198,3.9197 -9.0102,7.05 -5.1398,7.0597 -9.65,14.8595 -16.7896,20.1498 -2.9801,-1.5401 -5.94,-3.13 -8.8699,-4.75 5.0596,-6.0698 7.9396,-14.0499 7.2799,-21.9801 C 50.2101,193.8701 25.7397,174.6801 12.5603,148.4398 1.0397,125.91 -1.5602,99.5002 2.9302,74.7801 6.4698,55.6201 15.27,37.0801 29.55,23.6 41.65,12 57.4801,4.5302 74.02,2.04 Z"
     style="fill:#32a5e6;fill-rule:evenodd"
     id="path2" />
  <path
     d="M 58.82,75.9902 C 64.1001,62.0202 79.0999,52.26 94.0802,54.24 c 15.4097,1.5202 28.4099,14.9502 29.5398,30.3902 6.49,0.65 12.8101,3.6998 16.7899,8.96 6.55,8.1998 6.19,21.14 -0.9399,28.8698 -4.4201,4.75 -11.0801,6.76 -17.4399,6.6801 -19.69,-0.01 -39.3801,0 -59.0698,-0.01 -7.3205,0.0898 -14.7501,-2.85 -19.55,-8.46 -9.2803,-10.69 -8.4206,-28.65 2.0498,-38.2501 3.6501,-3.5098 8.45,-5.4799 13.3599,-6.4298 z m 10.9299,1.3099 c 3.1699,1.62 6.5899,3.2899 8.5399,6.4199 2.5705,3.81 2.48,8.57 2.63,12.9702 -3.0396,-3.8302 -6.5197,-7.67 -11.2998,-9.25 -5.5097,-1.8601 -12.3097,-1.69 -16.7899,2.4298 -6.2603,5.76 -7.8601,16.21 -3.0404,23.3501 2.5705,4.11 7.2303,6.95 12.1501,6.77 20.35,0.0301 40.7002,0 61.0603,0.01 3.46,0.1401 6.9899,-1.1899 9.2398,-3.8899 6.16,-6.88 1.5602,-20.27 -8.0799,-20.7199 -2.63,6.1299 -8.46,10.7 -15.1801,11.24 4.9601,-6.4701 6.9801,-14.9902 5.6101,-23.01 -2.48,-11.55 -13.61,-21.2601 -25.6598,-20.5801 -8.4501,0.7801 -15.1002,7.2301 -19.1803,14.26 z"
     style="fill:#f2f2f2;fill-rule:evenodd"
     id="path3" />
</svg>
